<svg version="1.1" id="Layer_1" xmlns="http://www.w3.org/2000/svg" xmlns:xlink="http://www.w3.org/1999/xlink" x="0px" y="0px"
	 viewBox="0 0 100 100" style="enable-background:new 0 0 100 100;" xml:space="preserve">
<style type="text/css">
	.st0{fill:#FFFFFF;stroke:#000000;stroke-width:2;stroke-miterlimit:10;}
	.st1{fill:#000000;}
	.st2{font-family:'ArialMT';}
	.st3{font-size:16px;}
</style>
<rect x="0" y="0" class="st0" width="100" height="100"/>
<g>
	<!-- Pegunungan (lebih besar) -->
	<polygon class="st1" points="50,10 10,60 90,60"/>
	
	<!-- Hutan (posisi disesuaikan) -->
	<polygon class="st1" points="25.5,68.8 30.2,60.7 34.9,68.8 "/>
	<polygon class="st1" points="69.2,60.7 64.5,68.8 59.8,60.7 "/>
	<polygon class="st1" points="50.4,60.8 45.7,68.9 41,60.8 "/>
	<polygon class="st1" points="40.7,75.8 45.4,67.7 50.1,75.8 "/>
	<polygon class="st1" points="75.2,60.8 70.5,68.9 65.8,60.8 "/>

	<!-- Sungai (posisi disesuaikan) -->
	<path class="st1" d="M12.9,88.6c0,0,10.6-11,37.1-11c26.5,0,37.1,11,37.1,11"/>

	<!-- Teks "UMPU" (posisi disesuaikan) -->
	<text transform="matrix(1 0 0 1 29.58 97.5342)" class="st1 st2 st3">UMPU</text>
</g>
</svg>

